<svg width="209" height="87" viewBox="0 0 209 87" fill="none" xmlns="http://www.w3.org/2000/svg">
<path d="M63.8906 78.1641C64.9722 78.1641 66.0095 77.7344 66.7743 76.9696C67.5391 76.2048 67.9688 75.1675 67.9688 74.0859C67.9688 70.0078 63.8906 64.5703 63.8906 64.5703C63.8906 64.5703 59.8125 70.0078 59.8125 74.0859C59.8125 75.1675 60.2422 76.2048 61.007 76.9696C61.7718 77.7344 62.809 78.1641 63.8906 78.1641Z" fill="#EF4B4B"/>
<path d="M74.7656 62.5312C75.8472 62.5312 76.8845 62.1016 77.6493 61.3368C78.4141 60.572 78.8438 59.5347 78.8438 58.4531C78.8438 54.375 74.7656 48.9375 74.7656 48.9375C74.7656 48.9375 70.6875 54.375 70.6875 58.4531C70.6875 59.5347 71.1172 60.572 71.882 61.3368C72.6468 62.1016 73.684 62.5312 74.7656 62.5312Z" fill="#EF4B4B"/>
<path d="M42.1406 22.3617C41.7588 22.7441 41.5443 23.2623 41.5443 23.8027C41.5443 24.343 41.7588 24.8613 42.1406 25.2436L53.172 36.3021C55.4119 38.5377 57.1822 41.1987 58.3787 44.1285C59.5751 47.0583 60.1735 50.1978 60.1388 53.3623C66.3657 53.3003 72.3201 50.7991 76.7235 46.3958C81.1268 41.9925 83.628 36.0381 83.6899 29.8111C80.522 29.8486 77.3787 29.2515 74.4452 28.055C71.5116 26.8585 68.8474 25.0868 66.6094 22.8443L55.5713 11.7926C55.1889 11.4107 54.6707 11.1963 54.1303 11.1963C53.59 11.1963 53.0717 11.4107 52.6894 11.7926L42.1406 22.3617Z" fill="#505D68"/>
<path d="M83.6899 29.8111C83.628 36.038 81.1268 41.9924 76.7234 46.3958C72.3201 50.7991 66.3657 53.3003 60.1388 53.3623C60.1743 50.1977 59.5762 47.0579 58.3797 44.128C57.1832 41.1981 55.4125 38.5372 53.172 36.3021L48.9375 32.0337L55.4965 25.4747C56.5154 24.4551 57.0878 23.0725 57.0878 21.631C57.0878 20.1895 56.5154 18.807 55.4965 17.7874L51.1125 13.4034L52.7234 11.7994C53.1057 11.4175 53.6239 11.203 54.1643 11.203C54.7047 11.203 55.2229 11.4175 55.6052 11.7994L66.6094 22.8443C68.8469 25.0874 71.5111 26.8595 74.4447 28.056C77.3783 29.2526 80.5219 29.8493 83.6899 29.8111Z" fill="#5A6A72"/>
<path d="M83.6899 29.8111C83.6279 36.038 81.1268 41.9924 76.7234 46.3958C72.3201 50.7991 66.3657 53.3003 60.1387 53.3623C60.1573 51.0789 59.853 48.8043 59.2347 46.6062C63.5321 45.5949 67.4624 43.4054 70.5842 40.2837C73.7059 37.162 75.8953 33.2317 76.9066 28.9343C79.1141 29.5496 81.3985 29.8448 83.6899 29.8111Z" fill="#BACBCE"/>
<path d="M60.064 51.5067L59.996 50.1473C65.3803 49.9965 70.5022 47.7893 74.3097 43.9793C78.1171 40.1693 80.3209 35.0459 80.4682 29.6616L81.8276 29.7295C81.6569 35.4439 79.3106 40.8775 75.2681 44.92C71.2256 48.9625 65.792 51.3088 60.0776 51.4795L60.064 51.5067Z" fill="white"/>
<path d="M80.9712 40.6181C78.9748 44.4269 75.9834 47.6234 72.3151 49.8674C68.6468 52.1115 64.4388 53.3193 60.1388 53.3623C60.15 52.1778 60.0727 50.9941 59.9077 49.8211C59.9077 49.8211 61.1719 46.8984 65.9297 46.2188C71.3672 45.4439 72.3595 45.2264 74.7656 42.8203C78.1641 39.4219 80.9712 40.6181 80.9712 40.6181Z" fill="#EF4B4B"/>
<path d="M58.4531 12.7509L60.6145 10.5895C61.0879 10.1158 61.65 9.74004 62.2687 9.48365C62.8874 9.22727 63.5506 9.09531 64.2203 9.09531C64.89 9.09531 65.5531 9.22727 66.1718 9.48365C66.7905 9.74004 67.3526 10.1158 67.826 10.5895C68.2997 11.0629 68.6755 11.625 68.9319 12.2437C69.1883 12.8624 69.3202 13.5256 69.3202 14.1953C69.3202 14.865 69.1883 15.5281 68.9319 16.1468C68.6755 16.7655 68.2997 17.3276 67.826 17.801L65.6646 19.9624" fill="#A2542A"/>
<path d="M69.3281 14.1919C69.3298 14.8614 69.1984 15.5246 68.9417 16.143C68.685 16.7614 68.3081 17.3227 67.8328 17.7942L65.6714 19.9624L62.9526 17.2437L65.114 15.0755C65.5894 14.6039 65.9663 14.0427 66.223 13.4243C66.4797 12.8059 66.611 12.1427 66.6094 11.4731C66.6067 10.7998 66.468 10.134 66.2015 9.51562C66.8085 9.77226 67.3601 10.1438 67.826 10.6099C68.3001 11.0785 68.6769 11.6362 68.9347 12.2509C69.1925 12.8657 69.3262 13.5253 69.3281 14.1919Z" fill="#D3987F"/>
<path d="M49.9638 35.6632L13.0364 72.5838C12.563 73.0575 12.0009 73.4333 11.3822 73.6897C10.7635 73.9461 10.1004 74.0781 9.43066 74.0781C8.76095 74.0781 8.0978 73.9461 7.47911 73.6897C6.86042 73.4333 6.29832 73.0575 5.82491 72.5838C5.35121 72.1104 4.97542 71.5483 4.71904 70.9296C4.46265 70.3109 4.33069 69.6478 4.33069 68.9781C4.33069 68.3084 4.46265 67.6452 4.71904 67.0265C4.97542 66.4079 5.35121 65.8457 5.82491 65.3723L42.528 28.6692L49.9638 35.6632Z" fill="#A2542A"/>
<path d="M49.9638 35.6632L42.5145 28.6896L40.0812 31.1297L47.2859 38.3412L49.9638 35.6632Z" fill="#8C3E23"/>
<path d="M9.97782 69.5252C9.2907 70.2057 8.42397 70.6765 7.47907 70.8823C6.53416 71.0881 5.55018 71.0206 4.64227 70.6875C4.93235 71.4952 5.42191 72.2165 6.06545 72.7843C6.709 73.352 7.48564 73.7479 8.32319 73.9351C9.16074 74.1223 10.032 74.0947 10.856 73.8549C11.6801 73.6151 12.4301 73.1708 13.0364 72.5635L47.2859 38.3412L44.2273 35.2826L9.97782 69.5252Z" fill="#D3987F"/>
<path d="M46.8033 32.7066L44.2273 35.2826L47.2859 38.3412L49.9639 35.6632L46.8033 32.7066Z" fill="#C38163"/>
<path d="M78.164 47.8364C82.9557 43.0662 85.6738 36.5994 85.729 29.8383C85.729 29.2975 85.5141 28.7789 85.1317 28.3965C84.7493 28.0141 84.2307 27.7992 83.6899 27.7992C80.7894 27.8462 77.9094 27.3062 75.2229 26.2117C72.5365 25.1173 70.099 23.491 68.0571 21.4306L67.5745 20.948L69.2601 19.2624C69.9242 18.6005 70.4514 17.8143 70.8117 16.9487C71.1719 16.0831 71.3582 15.1551 71.3597 14.2175C71.3613 13.2799 71.1782 12.3512 70.8209 11.4844C70.4635 10.6176 69.939 9.82967 69.2771 9.16559C68.6153 8.50151 67.8291 7.9743 66.9635 7.61405C66.0979 7.2538 65.1698 7.06757 64.2323 7.06599C63.2947 7.06441 62.366 7.24752 61.4992 7.60485C60.6324 7.96219 59.8444 8.48675 59.1804 9.1486L57.5015 10.8274L57.019 10.3449C56.2543 9.58115 55.2178 9.15219 54.1371 9.15219C53.0564 9.15219 52.0199 9.58115 51.2552 10.3449L40.6725 20.9208C39.9088 21.6854 39.4798 22.722 39.4798 23.8027C39.4798 24.8834 39.9088 25.9199 40.6725 26.6845L41.1551 27.1671L4.39076 63.9382C3.05229 65.2767 2.30035 67.092 2.30035 68.9849C2.30035 70.8778 3.05229 72.6931 4.39076 74.0316C5.72922 75.37 7.54457 76.122 9.43744 76.122C11.3303 76.122 13.1457 75.37 14.4841 74.0316L51.2484 37.2605L51.731 37.7431C54.2903 40.2904 56.1713 43.4379 57.2025 46.8984C57.2025 46.8984 57.2025 46.946 57.2025 46.9664C57.8009 49.024 58.0941 51.1583 58.0725 53.3011C58.0725 53.8419 58.2873 54.3605 58.6697 54.7429C59.0521 55.1253 59.5708 55.3402 60.1115 55.3402C64.9916 55.2985 69.7587 53.8674 73.8548 51.2145C75.0851 53.104 76.8047 56.2441 76.8047 58.4531C76.8047 58.9939 76.5898 59.5126 76.2074 59.895C75.825 60.2774 75.3064 60.4922 74.7656 60.4922C74.2248 60.4922 73.7062 60.2774 73.3238 59.895C72.9414 59.5126 72.7265 58.9939 72.7265 58.4531C72.7284 58.1661 72.7534 57.8797 72.8013 57.5967C72.8459 57.3325 72.8381 57.0621 72.7782 56.8009C72.7183 56.5398 72.6076 56.293 72.4523 56.0746C72.2971 55.8562 72.1003 55.6705 71.8733 55.5282C71.6463 55.3859 71.3935 55.2896 71.1293 55.245C70.8651 55.2004 70.5947 55.2082 70.3335 55.2681C70.0723 55.328 69.8255 55.4387 69.6071 55.594C69.3887 55.7492 69.2031 55.946 69.0608 56.173C68.9184 56.4 68.8222 56.6528 68.7776 56.917C68.6927 57.4247 68.6495 57.9384 68.6484 58.4531C68.6484 60.0755 69.2929 61.6314 70.4401 62.7786C71.5873 63.9258 73.1432 64.5703 74.7656 64.5703C76.388 64.5703 77.9439 63.9258 79.0911 62.7786C80.2383 61.6314 80.8828 60.0755 80.8828 58.4531C80.8828 54.8576 78.4495 50.7319 77.1513 48.788C77.4844 48.4821 77.831 48.1627 78.164 47.8364ZM62.0622 12.0305C62.3423 11.73 62.6799 11.4889 63.0551 11.3218C63.4303 11.1546 63.8353 11.0647 64.246 11.0575C64.6567 11.0502 65.0646 11.1258 65.4454 11.2796C65.8263 11.4334 66.1723 11.6624 66.4627 11.9528C66.7531 12.2433 66.9821 12.5892 67.1359 12.9701C67.2898 13.3509 67.3653 13.7589 67.3581 14.1695C67.3508 14.5802 67.2609 14.9852 67.0938 15.3604C66.9266 15.7356 66.6856 16.0733 66.3851 16.3533L64.7062 18.0389L60.3834 13.7161L62.0622 12.0305ZM11.5954 71.1633C11.0156 71.7036 10.2488 71.9977 9.45638 71.9837C8.66399 71.9697 7.90797 71.6487 7.34758 71.0883C6.78719 70.528 6.4662 69.7719 6.45222 68.9795C6.43823 68.1872 6.73236 67.4203 7.27263 66.8405L44.0369 30.0558L48.3597 34.3786L11.5954 71.1633ZM61.6476 47.8772C67.8932 45.8467 73.1308 41.5133 76.2949 35.7584C76.4397 35.5232 76.5352 35.2611 76.5757 34.988C76.6161 34.7148 76.6007 34.4363 76.5303 34.1693C76.4599 33.9023 76.336 33.6524 76.1661 33.4347C75.9962 33.217 75.7838 33.0361 75.5419 32.9029C75.3 32.7698 75.0336 32.6871 74.7588 32.66C74.484 32.6329 74.2065 32.6619 73.9433 32.7452C73.68 32.8285 73.4364 32.9645 73.2273 33.1448C73.0181 33.3251 72.8478 33.546 72.7265 33.7941C70.084 38.617 65.7126 42.2599 60.4922 43.9894C59.1961 40.5718 57.1873 37.4694 54.5993 34.8884L52.6758 32.9716L45.4915 25.7398L43.5544 23.7891L54.1303 13.2335L56.0538 15.157L63.2585 22.3617L65.1752 24.2784C69.5442 28.6642 75.3532 31.32 81.5285 31.755C81.0272 36.7385 78.8213 41.3963 75.2834 44.9417C71.7454 48.4871 67.0923 50.7027 62.1098 51.2145C62.0282 50.0932 61.8738 48.9784 61.6476 47.8772Z" fill="#31352E"/>
<path d="M63.8906 62.5312C63.5741 62.5312 63.2619 62.605 62.9787 62.7465C62.6956 62.8881 62.4493 63.0936 62.2594 63.3469C61.7972 63.9586 57.7734 69.4641 57.7734 74.0859C57.7734 75.7083 58.4179 77.2642 59.5651 78.4114C60.7123 79.5586 62.2682 80.2031 63.8906 80.2031C65.513 80.2031 67.0689 79.5586 68.2161 78.4114C69.3633 77.2642 70.0078 75.7083 70.0078 74.0859C70.0078 69.4641 65.9841 63.9586 65.5219 63.3469C65.3319 63.0936 65.0857 62.8881 64.8025 62.7465C64.5194 62.605 64.2072 62.5313 63.8906 62.5312ZM63.8906 76.125C63.3498 76.125 62.8312 75.9102 62.4488 75.5278C62.0664 75.1454 61.8516 74.6267 61.8516 74.0859C61.8516 72.3663 62.8711 70.1166 63.8906 68.329C64.9034 70.1166 65.9297 72.4071 65.9297 74.0859C65.9297 74.6267 65.7149 75.1454 65.3325 75.5278C64.9501 75.9102 64.4314 76.125 63.8906 76.125Z" fill="#31352E"/>
<path d="M110.032 35.24C108.752 35.24 107.56 35.032 106.456 34.616C105.368 34.184 104.416 33.584 103.6 32.816C102.8 32.032 102.176 31.112 101.728 30.056C101.28 29 101.056 27.848 101.056 26.6C101.056 25.352 101.28 24.2 101.728 23.144C102.176 22.088 102.808 21.176 103.624 20.408C104.44 19.624 105.392 19.024 106.48 18.608C107.568 18.176 108.76 17.96 110.056 17.96C111.432 17.96 112.688 18.2 113.824 18.68C114.96 19.144 115.92 19.84 116.704 20.768L114.688 22.664C114.08 22.008 113.4 21.52 112.648 21.2C111.896 20.864 111.08 20.696 110.2 20.696C109.32 20.696 108.512 20.84 107.776 21.128C107.056 21.416 106.424 21.824 105.88 22.352C105.352 22.88 104.936 23.504 104.632 24.224C104.344 24.944 104.2 25.736 104.2 26.6C104.2 27.464 104.344 28.256 104.632 28.976C104.936 29.696 105.352 30.32 105.88 30.848C106.424 31.376 107.056 31.784 107.776 32.072C108.512 32.36 109.32 32.504 110.2 32.504C111.08 32.504 111.896 32.344 112.648 32.024C113.4 31.688 114.08 31.184 114.688 30.512L116.704 32.432C115.92 33.344 114.96 34.04 113.824 34.52C112.688 35 111.424 35.24 110.032 35.24ZM124.478 35.168C123.39 35.168 122.43 34.968 121.598 34.568C120.766 34.152 120.118 33.528 119.654 32.696C119.19 31.848 118.958 30.784 118.958 29.504V22.184H121.958V29.096C121.958 30.248 122.214 31.112 122.726 31.688C123.254 32.248 123.998 32.528 124.958 32.528C125.662 32.528 126.27 32.384 126.782 32.096C127.31 31.808 127.718 31.376 128.006 30.8C128.31 30.224 128.462 29.512 128.462 28.664V22.184H131.462V35H128.606V31.544L129.11 32.6C128.678 33.432 128.046 34.072 127.214 34.52C126.382 34.952 125.47 35.168 124.478 35.168ZM135.39 35V17.192H138.39V35H135.39ZM149.599 22.04C150.623 22.04 151.535 22.24 152.335 22.64C153.151 23.04 153.791 23.656 154.255 24.488C154.719 25.304 154.951 26.36 154.951 27.656V35H151.951V28.04C151.951 26.904 151.679 26.056 151.135 25.496C150.607 24.936 149.863 24.656 148.903 24.656C148.199 24.656 147.575 24.8 147.031 25.088C146.487 25.376 146.063 25.808 145.759 26.384C145.471 26.944 145.327 27.656 145.327 28.52V35H142.327V17.192H145.327V25.64L144.679 24.584C145.127 23.768 145.775 23.144 146.623 22.712C147.487 22.264 148.479 22.04 149.599 22.04ZM161.355 35L156.651 22.184H159.483L163.515 33.488H162.171L166.395 22.184H168.915L173.019 33.488H171.699L175.851 22.184H178.515L173.787 35H170.907L167.163 24.992H168.051L164.235 35H161.355ZM186.106 35.168C184.762 35.168 183.562 34.888 182.506 34.328C181.466 33.752 180.65 32.968 180.058 31.976C179.466 30.984 179.17 29.856 179.17 28.592C179.17 27.312 179.466 26.184 180.058 25.208C180.65 24.216 181.466 23.44 182.506 22.88C183.562 22.32 184.762 22.04 186.106 22.04C187.354 22.04 188.45 22.296 189.394 22.808C190.354 23.304 191.082 24.04 191.578 25.016L189.274 26.36C188.89 25.752 188.418 25.304 187.858 25.016C187.314 24.728 186.722 24.584 186.082 24.584C185.346 24.584 184.682 24.744 184.09 25.064C183.498 25.384 183.034 25.848 182.698 26.456C182.362 27.048 182.194 27.76 182.194 28.592C182.194 29.424 182.362 30.144 182.698 30.752C183.034 31.344 183.498 31.8 184.09 32.12C184.682 32.44 185.346 32.6 186.082 32.6C186.722 32.6 187.314 32.456 187.858 32.168C188.418 31.88 188.89 31.432 189.274 30.824L191.578 32.168C191.082 33.128 190.354 33.872 189.394 34.4C188.45 34.912 187.354 35.168 186.106 35.168ZM201.326 22.04C202.35 22.04 203.262 22.24 204.062 22.64C204.878 23.04 205.518 23.656 205.982 24.488C206.446 25.304 206.678 26.36 206.678 27.656V35H203.678V28.04C203.678 26.904 203.406 26.056 202.862 25.496C202.334 24.936 201.59 24.656 200.63 24.656C199.926 24.656 199.302 24.8 198.758 25.088C198.214 25.376 197.79 25.808 197.486 26.384C197.198 26.944 197.054 27.656 197.054 28.52V35H194.054V17.192H197.054V25.64L196.406 24.584C196.854 23.768 197.502 23.144 198.35 22.712C199.214 22.264 200.206 22.04 201.326 22.04ZM107.848 64.168C106.504 64.168 105.304 63.888 104.248 63.328C103.208 62.752 102.392 61.968 101.8 60.976C101.208 59.984 100.912 58.856 100.912 57.592C100.912 56.312 101.208 55.184 101.8 54.208C102.392 53.216 103.208 52.44 104.248 51.88C105.304 51.32 106.504 51.04 107.848 51.04C109.096 51.04 110.192 51.296 111.136 51.808C112.096 52.304 112.824 53.04 113.32 54.016L111.016 55.36C110.632 54.752 110.16 54.304 109.6 54.016C109.056 53.728 108.464 53.584 107.824 53.584C107.088 53.584 106.424 53.744 105.832 54.064C105.24 54.384 104.776 54.848 104.44 55.456C104.104 56.048 103.936 56.76 103.936 57.592C103.936 58.424 104.104 59.144 104.44 59.752C104.776 60.344 105.24 60.8 105.832 61.12C106.424 61.44 107.088 61.6 107.824 61.6C108.464 61.6 109.056 61.456 109.6 61.168C110.16 60.88 110.632 60.432 111.016 59.824L113.32 61.168C112.824 62.128 112.096 62.872 111.136 63.4C110.192 63.912 109.096 64.168 107.848 64.168ZM121.486 64.168C120.174 64.168 119.006 63.888 117.982 63.328C116.958 62.752 116.15 61.968 115.558 60.976C114.966 59.984 114.67 58.856 114.67 57.592C114.67 56.312 114.966 55.184 115.558 54.208C116.15 53.216 116.958 52.44 117.982 51.88C119.006 51.32 120.174 51.04 121.486 51.04C122.814 51.04 123.99 51.32 125.014 51.88C126.054 52.44 126.862 53.208 127.438 54.184C128.03 55.16 128.326 56.296 128.326 57.592C128.326 58.856 128.03 59.984 127.438 60.976C126.862 61.968 126.054 62.752 125.014 63.328C123.99 63.888 122.814 64.168 121.486 64.168ZM121.486 61.6C122.222 61.6 122.878 61.44 123.454 61.12C124.03 60.8 124.478 60.336 124.798 59.728C125.134 59.12 125.302 58.408 125.302 57.592C125.302 56.76 125.134 56.048 124.798 55.456C124.478 54.848 124.03 54.384 123.454 54.064C122.878 53.744 122.23 53.584 121.51 53.584C120.774 53.584 120.118 53.744 119.542 54.064C118.982 54.384 118.534 54.848 118.198 55.456C117.862 56.048 117.694 56.76 117.694 57.592C117.694 58.408 117.862 59.12 118.198 59.728C118.534 60.336 118.982 60.8 119.542 61.12C120.118 61.44 120.766 61.6 121.486 61.6ZM147.371 51.04C148.395 51.04 149.299 51.24 150.083 51.64C150.883 52.04 151.507 52.656 151.955 53.488C152.403 54.304 152.627 55.36 152.627 56.656V64H149.627V57.04C149.627 55.904 149.379 55.056 148.883 54.496C148.387 53.936 147.675 53.656 146.747 53.656C146.091 53.656 145.507 53.8 144.995 54.088C144.499 54.376 144.107 54.8 143.819 55.36C143.547 55.92 143.411 56.632 143.411 57.496V64H140.411V57.04C140.411 55.904 140.163 55.056 139.667 54.496C139.171 53.936 138.459 53.656 137.531 53.656C136.875 53.656 136.291 53.8 135.779 54.088C135.283 54.376 134.891 54.8 134.603 55.36C134.331 55.92 134.195 56.632 134.195 57.496V64H131.195V51.184H134.051V54.592L133.547 53.584C133.979 52.752 134.603 52.12 135.419 51.688C136.251 51.256 137.195 51.04 138.251 51.04C139.451 51.04 140.491 51.336 141.371 51.928C142.267 52.52 142.859 53.416 143.147 54.616L141.971 54.208C142.387 53.248 143.075 52.48 144.035 51.904C144.995 51.328 146.107 51.04 147.371 51.04ZM163.564 64.168C162.524 64.168 161.572 63.928 160.708 63.448C159.86 62.968 159.18 62.248 158.668 61.288C158.172 60.312 157.924 59.08 157.924 57.592C157.924 56.088 158.164 54.856 158.644 53.896C159.14 52.936 159.812 52.224 160.66 51.76C161.508 51.28 162.476 51.04 163.564 51.04C164.828 51.04 165.94 51.312 166.9 51.856C167.876 52.4 168.644 53.16 169.204 54.136C169.78 55.112 170.068 56.264 170.068 57.592C170.068 58.92 169.78 60.08 169.204 61.072C168.644 62.048 167.876 62.808 166.9 63.352C165.94 63.896 164.828 64.168 163.564 64.168ZM156.46 68.656V51.184H159.316V54.208L159.22 57.616L159.46 61.024V68.656H156.46ZM163.228 61.6C163.948 61.6 164.588 61.44 165.148 61.12C165.724 60.8 166.18 60.336 166.516 59.728C166.852 59.12 167.02 58.408 167.02 57.592C167.02 56.76 166.852 56.048 166.516 55.456C166.18 54.848 165.724 54.384 165.148 54.064C164.588 53.744 163.948 53.584 163.228 53.584C162.508 53.584 161.86 53.744 161.284 54.064C160.708 54.384 160.252 54.848 159.916 55.456C159.58 56.048 159.412 56.76 159.412 57.592C159.412 58.408 159.58 59.12 159.916 59.728C160.252 60.336 160.708 60.8 161.284 61.12C161.86 61.44 162.508 61.6 163.228 61.6ZM172.913 64V46.192H175.913V64H172.913ZM185.875 64.168C184.451 64.168 183.203 63.888 182.131 63.328C181.075 62.752 180.251 61.968 179.659 60.976C179.083 59.984 178.795 58.856 178.795 57.592C178.795 56.312 179.075 55.184 179.635 54.208C180.211 53.216 180.995 52.44 181.987 51.88C182.995 51.32 184.139 51.04 185.419 51.04C186.667 51.04 187.779 51.312 188.755 51.856C189.731 52.4 190.499 53.168 191.059 54.16C191.619 55.152 191.899 56.32 191.899 57.664C191.899 57.792 191.891 57.936 191.875 58.096C191.875 58.256 191.867 58.408 191.851 58.552H181.171V56.56H190.267L189.091 57.184C189.107 56.448 188.955 55.8 188.635 55.24C188.315 54.68 187.875 54.24 187.315 53.92C186.771 53.6 186.139 53.44 185.419 53.44C184.683 53.44 184.035 53.6 183.475 53.92C182.931 54.24 182.499 54.688 182.179 55.264C181.875 55.824 181.723 56.488 181.723 57.256V57.736C181.723 58.504 181.899 59.184 182.251 59.776C182.603 60.368 183.099 60.824 183.739 61.144C184.379 61.464 185.115 61.624 185.947 61.624C186.667 61.624 187.315 61.512 187.891 61.288C188.467 61.064 188.979 60.712 189.427 60.232L191.035 62.08C190.459 62.752 189.731 63.272 188.851 63.64C187.987 63.992 186.995 64.168 185.875 64.168ZM192.677 64L198.317 56.656L198.269 58.264L192.893 51.184H196.229L199.997 56.224H198.725L202.517 51.184H205.757L200.333 58.264L200.357 56.656L205.973 64H202.589L198.629 58.648L199.877 58.816L195.989 64H192.677Z" fill="white"/>
</svg>
