<svg width="24" height="24" viewBox="0 0 24 24" fill="none" xmlns="http://www.w3.org/2000/svg">
<path d="M12 4C7.581 4 4 7.582 4 12C4 16.418 7.581 20 12 20C16.419 20 20 16.418 20 12C20 7.582 16.419 4 12 4ZM15.707 14.293C16.098 14.684 16.098 15.316 15.707 15.707C15.512 15.902 15.256 16 15 16C14.744 16 14.488 15.902 14.293 15.707L12 13.414L9.707 15.707C9.512 15.902 9.256 16 9 16C8.744 16 8.488 15.902 8.293 15.707C7.902 15.316 7.902 14.684 8.293 14.293L10.586 12L8.293 9.707C7.902 9.316 7.902 8.684 8.293 8.293C8.684 7.902 9.316 7.902 9.707 8.293L12 10.586L14.293 8.293C14.684 7.902 15.316 7.902 15.707 8.293C16.098 8.684 16.098 9.316 15.707 9.707L13.414 12L15.707 14.293Z" fill="white"/>
</svg>
